<svg width="79" height="87" viewBox="0 0 79 87" fill="none" xmlns="http://www.w3.org/2000/svg">
<path d="M40.7866 0C45.5133 0.000122003 49.3452 3.83189 49.3452 8.55859V16.4648C52.6295 17.7178 55.6377 19.5293 58.2525 21.7852L63.4605 18.7793C67.554 16.4161 72.7885 17.8187 75.1519 21.9121L76.9497 25.0273C79.3131 29.1209 77.9104 34.3554 73.8169 36.7188L68.3199 39.8916C68.5548 41.4051 68.6782 42.9558 68.6783 44.5352C68.6783 46.1103 68.5555 47.6573 68.3218 49.167L73.8169 52.3398C77.9104 54.7032 79.3131 59.9377 76.9497 64.0312L75.1509 67.1455C72.7875 71.239 67.553 72.6417 63.4595 70.2783L58.2613 67.2773C55.6445 69.5368 52.6332 71.3501 49.3452 72.6045V78.4414C49.3451 83.168 45.5133 86.9999 40.7866 87H37.19C32.4633 87 28.6315 83.1681 28.6314 78.4414V72.8594C25.2114 71.6506 22.0762 69.8408 19.3521 67.5557L14.6382 70.2783C10.5447 72.6417 5.3102 71.239 2.94681 67.1455L1.14798 64.0312C-1.21538 59.9378 0.187431 54.7033 4.28079 52.3398L9.03274 49.5957C8.75361 47.9505 8.60696 46.2598 8.60696 44.5352C8.60698 42.5871 8.79374 40.6826 9.14798 38.8379L4.28079 36.0273C0.187611 33.664 -1.215 28.4303 1.14798 24.3369L2.94681 21.2217C5.3102 17.1282 10.5447 15.7255 14.6382 18.0889L19.856 21.1016C22.4602 19.0111 25.4197 17.3459 28.6304 16.2109V8.55859C28.6304 3.83197 32.4624 0.000261243 37.189 0H40.7866Z" fill="#9C9C9C"/>
<circle cx="38.9878" cy="43.4998" r="13.119" fill="#656565"/>
</svg>
