<svg width="128" height="87" viewBox="0 0 128 87" fill="none" xmlns="http://www.w3.org/2000/svg">
<circle cx="94.0706" cy="34.5237" r="17.1238" fill="#60D368"/>
<path d="M68.7715 80.9241C68.7715 66.9518 80.0983 55.625 94.0705 55.625C108.043 55.625 119.37 66.9518 119.37 80.9241V85.7935C119.37 86.46 118.829 87.0003 118.163 87.0003H69.9782C69.3118 87.0003 68.7715 86.46 68.7715 85.7935V80.9241Z" fill="#44B94C"/>
<circle cx="41.8705" cy="26.2381" r="17.1238" fill="#43B7FF"/>
<path d="M16.5714 72.4999C16.5714 58.5429 27.8858 47.2285 41.8428 47.2285C55.7999 47.2285 67.1143 58.5429 67.1143 72.4999V85.4703C67.1143 86.3151 66.4294 87 65.5846 87H18.1011C17.2563 87 16.5714 86.3151 16.5714 85.4703V72.4999Z" fill="#3697D3"/>
<path d="M116.459 2.28776C116.715 1.54108 117.771 1.54108 118.027 2.28776L119.917 7.80483C119.995 8.0332 120.169 8.21609 120.393 8.30567L125.675 10.4163C126.37 10.694 126.37 11.6775 125.675 11.9551L120.393 14.0658C120.169 14.1553 119.995 14.3382 119.917 14.5666L118.027 20.0837C117.771 20.8304 116.715 20.8304 116.459 20.0837L114.569 14.5666C114.491 14.3382 114.317 14.1553 114.092 14.0658L108.811 11.9551C108.116 11.6775 108.116 10.694 108.811 10.4163L114.092 8.30567C114.317 8.21609 114.491 8.0332 114.569 7.80483L116.459 2.28776Z" fill="#FFE398"/>
<path d="M7.65865 34.973C7.86331 34.3757 8.70813 34.3757 8.91279 34.973L10.425 39.3867C10.4876 39.5694 10.6268 39.7157 10.8061 39.7874L15.0312 41.4759C15.5871 41.698 15.5871 42.4848 15.0312 42.7069L10.8061 44.3954C10.6268 44.4671 10.4876 44.6134 10.425 44.7961L8.91279 49.2098C8.70813 49.8071 7.86331 49.8071 7.65865 49.2098L6.14642 44.7961C6.08383 44.6134 5.94467 44.4671 5.76534 44.3954L1.54021 42.7069C0.984384 42.4848 0.984385 41.698 1.54021 41.4759L5.76534 39.7874C5.94467 39.7157 6.08383 39.5694 6.14642 39.3867L7.65865 34.973Z" fill="#FFE398"/>
</svg>
