<svg width="74" height="75" viewBox="0 0 74 75" fill="none" xmlns="http://www.w3.org/2000/svg">
<ellipse cx="36.6848" cy="37.5" rx="36.6848" ry="37.5" fill="white" fill-opacity="0.62"/>
<path d="M33.8937 43.419L18.9233 36.082C18.6763 35.6374 16.9422 35.1334 17.0015 34.5998C17.0608 34.0662 17.4709 33.0929 17.6685 32.6729L51.6853 20.5929L54.205 20C54.872 20 56.3098 20.252 56.7248 21.2599C57.1398 22.2678 57.1942 22.7668 57.1695 22.8903L46.4975 53.4239C45.8552 55.3261 44.3928 59.2194 43.6813 59.5751C42.9699 59.9308 42.4956 59.9704 42.3473 59.9456C41.8286 60.0939 41.868 59.916 41.453 58.9081C41.038 57.9002 35.9688 48.2609 33.8937 43.419Z" fill="black" fill-opacity="0.88"/>
</svg>
