<svg width="75" height="88" viewBox="0 0 75 88" fill="none" xmlns="http://www.w3.org/2000/svg">
<path d="M14.0249 18.1583C-17.5844 57.4092 10.9419 87.6951 33.8926 87.0101C63.0089 87.0101 78.5104 63.9359 72.9428 41.1087C69.5173 27.0643 39.8581 -0.339368 35.2627 0.00318153C29.1521 0.458673 19.5055 29.7558 18.1356 30.1473C16.7656 30.5388 14.8527 17.1305 14.0249 18.1583Z" fill="#FFB783"/>
<path d="M14.0249 18.1583C-17.5844 57.4092 10.9419 87.6951 33.8926 87.0101C63.0089 87.0101 78.5104 63.9359 72.9428 41.1087C69.5173 27.0643 39.8581 -0.339368 35.2627 0.00318153C29.1521 0.458673 19.5055 29.7558 18.1356 30.1473C16.7656 30.5388 14.8527 17.1305 14.0249 18.1583Z" fill="#FFB783"/>
<path d="M35.5451 25.3484C31.3906 25.3485 17.7712 44.8329 15.3584 55.3806C12.9455 65.9283 13.4815 84.2664 35.5452 84.2664C55.2864 84.2664 60.9058 69.5137 57.131 54.2363C54.8085 44.837 39.2611 25.3483 35.5451 25.3484Z" fill="#FFE498"/>
<path d="M35.1707 45.2161C32.7039 45.2161 24.6174 56.9362 23.1848 63.2807C21.7522 69.6253 22.0704 80.6559 35.1708 80.6559C46.8921 80.6559 50.2286 71.782 47.9873 62.5925C46.6083 56.9387 37.3771 45.216 35.1707 45.2161Z" fill="white"/>
</svg>
