<svg width="138" height="87" viewBox="0 0 138 87" fill="none" xmlns="http://www.w3.org/2000/svg">
<circle cx="111.856" cy="25.1238" r="17.1238" fill="#9EA0FF"/>
<path d="M86.5569 71.5242C86.5569 57.5519 97.8837 46.2251 111.856 46.2251C125.828 46.2251 137.155 57.5519 137.155 71.5242V76.3936C137.155 77.0601 136.615 77.6004 135.948 77.6004H87.7636C87.0972 77.6004 86.5569 77.0601 86.5569 76.3936V71.5242Z" fill="#8889DB"/>
<circle cx="26.1238" cy="24.1238" r="17.1238" fill="#60D368"/>
<path d="M0.556885 71.5C0.556885 57.4167 11.9736 46 26.0569 46C40.1401 46 51.5569 57.4167 51.5569 71.5V76.7692C51.5569 77.449 51.0059 78 50.3261 78H1.78765C1.10792 78 0.556885 77.449 0.556885 76.7692V71.5Z" fill="#44B94C"/>
<circle cx="69.0353" cy="21.3063" r="21.3063" fill="#43B7FF"/>
<path d="M37.5569 79.0397C37.5569 61.6547 51.6503 47.5613 69.0353 47.5613C86.4203 47.5613 100.514 61.6546 100.514 79.0397V85.0985C100.514 85.9278 99.8415 86.6 99.0122 86.6H39.0584C38.2291 86.6 37.5569 85.9278 37.5569 85.0985V79.0397Z" fill="#3697D3"/>
</svg>
