<svg width="109" height="109" viewBox="0 0 109 109" fill="none" xmlns="http://www.w3.org/2000/svg">
<circle cx="54.4424" cy="54.521" r="54.2998" fill="#D9D9D9" fill-opacity="0.51"/>
<path d="M47.0615 20.7202C61.1971 20.7202 72.6562 32.1794 72.6562 46.3149C72.6562 52.3799 70.5448 57.9506 67.0195 62.3364L86.2607 81.5776C87.8031 83.1203 87.8033 85.622 86.2607 87.1646C84.7182 88.7071 82.2165 88.7069 80.6738 87.1646L61.1758 67.6665C57.1294 70.3467 52.2785 71.9097 47.0615 71.9097C32.9259 71.9097 21.4668 60.4506 21.4668 46.3149C21.4668 32.1794 32.9259 20.7202 47.0615 20.7202ZM47.0615 27.7563C36.8118 27.7564 28.503 36.0652 28.5029 46.3149C28.5029 56.5647 36.8118 64.8735 47.0615 64.8735C57.3113 64.8735 65.6201 56.5647 65.6201 46.3149C65.6201 36.0652 57.3113 27.7563 47.0615 27.7563Z" fill="#B1AFAF"/>
</svg>
