<svg width="78" height="79" viewBox="0 0 78 79" fill="none" xmlns="http://www.w3.org/2000/svg">
<circle cx="39" cy="39.7788" r="39" fill="#D9D9D9"/>
<path d="M33.6992 15.5015C43.8518 15.5015 52.0818 23.7318 52.082 33.8843C52.082 38.2513 50.5581 42.2618 48.0146 45.4155L61.8311 59.2329C62.927 60.3289 62.927 62.1057 61.8311 63.2017C60.7351 64.2976 58.9583 64.2976 57.8623 63.2017L43.8623 49.2026C40.9509 51.1382 37.4574 52.2681 33.6992 52.2681C23.5465 52.2681 15.3164 44.037 15.3164 33.8843C15.3166 23.7317 23.5466 15.5015 33.6992 15.5015ZM33.6992 20.5552C26.3376 20.5552 20.3693 26.5227 20.3691 33.8843C20.3691 41.246 26.3375 47.2144 33.6992 47.2144C41.0609 47.2143 47.0283 41.246 47.0283 33.8843C47.0281 26.5227 41.0608 20.5552 33.6992 20.5552Z" fill="#B1AFAF"/>
</svg>
