<svg width="78" height="80" viewBox="0 0 78 80" fill="none" xmlns="http://www.w3.org/2000/svg">
<path d="M30.2705 0C46.9887 0 60.542 13.5533 60.542 30.2715C60.5419 37.4445 58.0454 44.0336 53.876 49.2207L76.6318 71.9766C78.456 73.8011 78.4562 76.7596 76.6318 78.584C74.8074 80.4082 71.8489 80.4081 70.0244 78.584L46.9648 55.5234C42.1791 58.6936 36.4409 60.542 30.2705 60.542C13.5527 60.5418 0.000243282 46.9893 0 30.2715C0 13.5535 13.5525 0.000218542 30.2705 0ZM30.2705 8.32129C18.1483 8.32151 8.32129 18.1493 8.32129 30.2715C8.32153 42.3935 18.1485 52.2205 30.2705 52.2207C42.3927 52.2207 52.2205 42.3936 52.2207 30.2715C52.2207 18.1491 42.3929 8.32129 30.2705 8.32129Z" fill="#747474"/>
</svg>
